HIERARCHY
ROOT Hips
{
     OFFSET 1.88212 96.90440 -13.34250
     CHANNELS 6 Xposition Yposition Zposition Zrotation Xrotation Yrotation
     JOINT Spine
     {
          OFFSET 0.00000 11.89050 0.00000
          CHANNELS 3 Zrotation Xrotation Yrotation
          JOINT Spine1
          {
               OFFSET -0.00000 25.65740 0.12766
               CHANNELS 3 Zrotation Xrotation Yrotation
               JOINT HEad
               {
                    OFFSET 0.00000 8.73416 0.01134
                    CHANNELS 3 Zrotation Xrotation Yrotation
                    End Site
                    {
                         OFFSET -0.29000 12.77420 2.51395
                    }
               }
               JOINT LeftShoulder1
               {
                    OFFSET 8.99000 -0.36225 -0.22000
                    CHANNELS 3 Zrotation Xrotation Yrotation
                    JOINT LeftArm
                    {
                         OFFSET 10.28270 -0.00338 0.32212
                         CHANNELS 3 Zrotation Xrotation Yrotation
                         JOINT LeftForeArm
                         {
                              OFFSET 32.76690 0.09914 -1.42434
                              CHANNELS 3 Zrotation Xrotation Yrotation
                              JOINT LeftHand
                              {
                                   OFFSET 27.56430 0.08536 1.02216
                                   CHANNELS 3 Zrotation Xrotation Yrotation
                                   End Site
                                   {
                                        OFFSET 16.74430 -0.60000 1.50291
                                   }
                              }
                         }
                    }
               }
               JOINT RightShoulder
               {
                    OFFSET -8.99000 -0.36225 -0.22000
                    CHANNELS 3 Zrotation Xrotation Yrotation
                    JOINT RightArm
                    {
                         OFFSET -10.28270 -0.00338 0.32212
                         CHANNELS 3 Zrotation Xrotation Yrotation
                         JOINT RightForeArm
                         {
                              OFFSET -32.89710 0.09914 -1.42434
                              CHANNELS 3 Zrotation Xrotation Yrotation
                              JOINT RightHand
                              {
                                   OFFSET -27.49210 0.08536 1.02216
                                   CHANNELS 3 Zrotation Xrotation Yrotation
                                   End Site
                                   {
                                        OFFSET -16.63120 -0.60000 1.50291
                                   }
                              }
                         }
                    }
               }
          }
     }
     JOINT LeftUpLeg
     {
          OFFSET 8.94580 -8.66707 0.10165
          CHANNELS 3 Zrotation Xrotation Yrotation
          JOINT LeftLeg
          {
               OFFSET 0.00000 -44.42270 1.37270
               CHANNELS 3 Zrotation Xrotation Yrotation
               JOINT LeftFoot
               {
                    OFFSET -0.25355 -42.09240 -1.46059
                    CHANNELS 3 Zrotation Xrotation Yrotation
                    JOINT LeftToes
                    {
                         OFFSET -0.04000 -4.41509 8.49910
                         CHANNELS 3 Zrotation Xrotation Yrotation
                         End Site
                         {
                              OFFSET 0.08000 -0.04745 9.77979
                         }
                    }
               }
          }
     }
     JOINT RightUpLeg
     {
          OFFSET -8.94580 -8.66707 0.10165
          CHANNELS 3 Zrotation Xrotation Yrotation
          JOINT RightLeg
          {
               OFFSET 0.00000 -44.42270 1.37270
               CHANNELS 3 Zrotation Xrotation Yrotation
               JOINT RightFoot
               {
                    OFFSET 0.25355 -42.09240 -1.46059
                    CHANNELS 3 Zrotation Xrotation Yrotation
                    JOINT RightToes
                    {
                         OFFSET 0.04000 -4.41509 8.49910
                         CHANNELS 3 Zrotation Xrotation Yrotation
                         End Site
                         {
                              OFFSET -0.08000 -0.13745 9.77979
                         }
                    }
               }
          }
     }
}
MOTION
Frames: 15
Frame Time: 0.01667
24.38613 96.38732 -7.82553 28.15242 34.76924 85.03183 -31.93903 35.09860 13.61752 -0.00023 0.01810 -0.00378 -23.63445 8.26754 15.32523 1.95405 7.62416 3.97047 -53.21997 -15.20777 -26.92160 -2.55265 -55.38697 -58.27620 4.88221 6.06850 -10.03935 -0.06067 7.94465 5.13017 68.69225 28.28225 78.07635 -1.13904 27.71969 100.32135 18.26144 9.07693 -1.03533 69.60685 -30.78077 31.47094 -111.38215 38.05779 139.94620 -30.08424 0.04286 0.04308 -88.53156 31.57803 96.68074 -41.25184 1.60063 19.98524 33.70522 24.33478 -53.26358 52.41661 -0.00266 -0.02236 -73.62984 -36.91038 23.10107 
24.50461 96.55010 -7.19561 25.83279 33.00851 88.49062 -28.50742 32.86086 11.14666 -0.00428 0.02399 -0.00408 -24.01196 11.27024 16.43805 0.98201 9.01833 3.63329 -52.94334 -21.77986 -28.21228 -9.62914 -43.13574 -67.26070 9.24476 4.13385 -1.97174 -0.04122 9.44873 4.77731 68.97770 27.05412 77.52804 -0.99639 27.45477 99.92011 19.17929 9.49636 0.73747 64.01181 -31.78789 33.51553 -113.47636 42.36035 143.50876 -30.06876 0.06585 0.03351 -92.37367 40.52249 104.90639 -38.73843 2.16322 18.39437 33.97731 22.75364 -54.13262 47.67376 0.00753 -0.01884 -69.56708 -37.03697 22.87369 
24.73407 96.77585 -6.78194 23.89852 31.44352 91.40496 -25.89816 30.35648 9.27696 -0.00622 0.02806 -0.00492 -24.25125 14.18582 17.58234 -0.18185 10.62638 3.27221 -53.64108 -30.57519 -30.20138 -13.08354 -31.03340 -69.24153 5.81101 5.84212 -20.23039 -0.20788 11.14114 4.30950 69.35417 25.63153 77.01878 -3.20110 27.83275 96.07251 17.05579 9.17881 4.59081 57.74538 -32.52935 35.56424 -116.61221 48.11000 145.98274 -30.02589 0.07208 0.00859 -94.94276 58.11918 102.72958 -36.68292 2.82918 17.09677 33.96066 20.96286 -54.58903 42.82203 0.01648 -0.01373 -65.18223 -37.00630 22.77024 
25.07360 97.06155 -6.59132 22.25377 30.09245 93.88711 -24.06812 28.11881 7.85342 -0.00772 0.02719 -0.00459 -24.34491 16.57017 18.61494 -1.25340 11.97950 2.92913 -54.07077 -36.66979 -31.71209 -15.50166 -22.75980 -69.92245 13.60050 7.40960 -7.83368 -0.44153 12.55094 3.87854 69.74086 24.01900 76.52786 -4.09738 27.90707 94.17103 16.72095 9.07074 8.39609 50.79733 -33.05726 37.48282 -121.18580 55.38902 148.17641 -27.76499 0.08805 0.11504 -84.74916 69.07072 85.27306 -35.06740 3.60359 16.05136 33.72758 19.04007 -54.70302 37.89437 0.02367 -0.00774 -60.50914 -36.82380 22.77571 
25.49870 97.35377 -6.59062 20.74501 28.80442 96.18484 -22.91676 26.14000 6.83702 -0.02596 0.02829 0.00447 -24.04910 18.60860 19.44063 -2.03134 13.02891 2.58321 -54.71547 -42.16775 -33.49397 -17.77148 -15.17071 -70.22484 15.21646 6.79519 -6.46693 -0.42799 13.63517 3.31060 70.16278 22.38475 76.06882 -4.67072 27.91900 92.65228 16.31006 9.01793 11.09821 43.51516 -33.59375 39.02697 -128.09723 62.96358 153.21497 -25.07132 0.06738 0.14490 -51.89133 75.28220 44.70380 -33.61339 4.46732 15.09830 33.20174 17.06077 -54.61754 32.93815 0.02943 0.00116 -55.52723 -36.48807 22.88672 
25.97716 97.59657 -6.74018 19.35368 27.58102 98.32723 -22.31239 24.45577 6.15170 -0.02488 0.02889 0.00637 -23.42378 20.30556 20.03876 -2.38938 13.78155 2.21386 -55.77240 -47.10282 -35.65781 -20.47373 -7.27428 -71.40987 15.06197 5.98490 -10.00311 -0.11291 14.41109 2.67263 70.53151 20.68166 75.58636 -5.01713 27.88859 91.47993 15.85402 9.02153 13.04908 35.87205 -33.96877 40.01488 -138.85286 69.92265 163.20514 -21.49523 0.08712 0.17086 -12.25095 70.34858 -3.57908 -32.28214 5.39152 14.22433 32.46553 15.03309 -54.40921 27.93568 0.03236 0.01018 -50.30397 -36.01875 23.09461 
26.47421 97.74873 -7.00692 18.06694 26.41591 100.34265 -22.12558 23.09702 5.74619 -0.02135 0.02988 0.00862 -22.47583 21.66880 20.35978 -2.30296 14.23143 1.81711 -57.33904 -51.47798 -38.30128 -23.33351 0.79734 -73.23341 14.46991 5.90688 -15.61063 0.53711 14.87540 1.97004 70.81268 18.86482 75.06513 -5.17556 27.81521 90.63979 15.34914 9.06905 14.49247 28.02309 -34.02289 40.30708 -156.21860 75.98988 181.25453 -17.76169 0.09024 0.14563 0.58647 58.52520 -25.39338 -31.03191 6.33685 13.41240 31.60729 12.97385 -54.15042 22.87038 0.03323 0.01797 -44.91919 -35.44735 23.36440 
26.95217 97.11711 -7.33290 16.55993 24.71717 102.67172 -21.62005 21.83061 5.10523 -0.02044 0.03107 0.00646 -21.24103 22.74654 20.42503 -1.99295 14.55919 1.44651 -61.29612 -56.28152 -42.74419 -26.37082 10.50446 -75.23009 11.18841 7.03257 -19.79437 1.70932 15.26117 1.25725 70.93886 16.92670 74.53603 -4.34402 26.74885 88.66294 12.76906 5.88491 12.51619 20.08254 -33.86397 39.57555 -192.58939 82.52760 218.42844 -12.76406 0.17441 0.04046 -0.50512 46.81241 -33.48564 -29.45242 7.12917 12.52541 30.95236 10.66865 -54.07265 17.74064 0.03209 0.02153 -39.64363 -34.19862 23.08780 
27.41842 96.55782 -7.79104 14.91520 22.43221 105.20264 -20.74205 20.64268 4.24140 -0.01837 0.03161 0.00403 -19.76976 23.51242 20.25740 -1.44563 14.68952 1.01972 -68.56515 -61.21432 -49.87029 -29.63196 21.61733 -77.18408 11.48352 8.37819 -19.11983 3.28817 15.45517 0.48440 70.99384 15.04722 73.99740 -2.63020 24.71895 85.95845 12.62427 5.17156 12.82144 12.34448 -33.31612 37.95130 -269.53137 80.79021 295.56778 -11.55610 0.04533 -0.02749 -1.70143 35.93627 -36.74975 -27.51559 7.67878 11.60398 30.63435 8.06849 -54.18429 12.48555 0.03101 0.02331 -34.56170 -32.63362 22.43164 
27.85414 95.98738 -8.33801 13.24550 19.54695 107.81080 -19.45490 19.54026 3.18679 -0.01531 0.03205 0.00129 -18.13097 23.94523 19.89802 -0.65634 14.56548 0.51505 -80.70026 -65.70316 -61.18873 -33.34724 32.85183 -77.70034 13.09924 9.63058 -16.76715 5.13955 15.37440 -0.35001 71.02697 13.27109 73.47470 -1.07461 22.96235 83.79945 13.14331 5.30110 14.06229 5.17154 -32.28300 35.66295 -295.52701 70.99884 321.31302 -13.47344 -0.09359 0.02468 -0.79560 25.69459 -38.13568 -25.02550 7.79152 10.44287 30.48403 5.47147 -54.33800 7.10942 0.03056 0.02337 -29.68331 -30.98190 21.53745 
28.21062 95.46577 -8.91932 11.93554 16.85329 109.95895 -18.86231 19.82463 2.59392 -0.03616 0.10603 -0.00234 -15.99544 23.13521 19.03984 0.90054 13.27237 -0.21115 -103.86995 -69.12896 -81.26484 -37.41893 44.56400 -75.61242 16.82290 10.73949 -12.39915 7.93160 14.07317 -1.02787 70.98981 11.75492 72.91901 0.05679 22.11481 83.25307 14.57121 7.22193 16.66750 -1.06776 -30.05290 32.48943 -307.67920 60.25134 333.37054 -15.41922 -0.06662 0.10461 -0.11828 16.04345 -38.68985 -22.85934 7.76812 9.63519 30.59929 3.13793 -54.40855 1.74799 0.03136 0.01549 -25.17024 -29.48417 20.26415 
28.43569 95.04179 -9.48814 10.92907 14.42805 111.69780 -18.72388 21.31245 2.28467 -0.02330 0.09733 -0.01404 -13.78153 21.38084 18.03148 2.56886 10.96942 -0.68335 -122.48415 -69.31970 -97.83257 -41.23445 52.28563 -73.19414 16.58925 10.99664 -11.95068 10.66701 11.73093 -1.51028 71.29060 10.66956 72.30214 0.94174 21.78001 83.71495 14.76288 7.49461 16.06182 -5.86352 -26.79203 28.98957 -316.00226 49.69556 341.85327 -15.46290 0.02741 0.04782 1.49045 7.38287 -39.49486 -21.09780 7.66030 9.15757 30.96221 1.00035 -54.40052 -3.61718 0.03475 0.01327 -20.66874 -28.33985 19.10547 
28.52030 94.76739 -10.03443 10.16847 12.30935 113.07482 -18.43493 22.63233 2.03669 0.01812 -0.00974 -0.01647 -12.15199 20.05758 17.26114 3.81626 9.07750 -1.06477 -134.90225 -68.42443 -108.89294 -44.33856 57.39191 -71.19949 18.04959 11.36929 -9.78591 12.87484 9.77715 -1.93124 71.78143 9.77776 71.67712 1.68210 21.78064 84.80888 15.64827 8.82334 16.57187 -9.01007 -22.77032 25.41352 -323.14948 39.90220 349.55008 -14.62442 0.06243 0.00189 2.78079 -0.86871 -42.10941 -19.77219 7.50498 8.97237 31.51628 -0.98031 -54.32728 -8.98963 0.03648 0.01529 -16.30620 -27.35063 17.90354 
28.50191 94.56551 -10.56303 9.60982 10.49955 114.12466 -18.04097 23.78403 1.83887 0.02063 -0.01537 -0.01584 -10.94781 18.96582 16.64086 4.74109 7.39812 -1.37476 -142.77611 -67.44852 -115.86347 -46.41877 60.86936 -70.11752 17.40288 11.23167 -9.64432 14.69792 8.02374 -2.24712 72.33463 8.95339 71.09096 2.33276 21.96244 86.20004 15.79354 9.06691 15.44882 -10.58770 -18.34203 21.74524 -327.58099 32.05248 355.51224 -14.62224 0.04126 0.02798 2.67620 6.47002 -39.10624 -18.86531 7.34829 9.04239 32.19278 -2.82150 -54.19547 -14.33888 0.03560 0.01949 -11.97381 -26.56104 16.82864 
28.44264 94.42734 -11.09273 9.22685 8.97706 114.87173 -17.57308 24.77575 1.69161 0.01965 -0.01477 -0.01541 -10.13581 18.17368 16.16038 5.35586 6.01639 -1.63547 -147.81564 -66.71297 -120.31755 -47.37591 63.26709 -70.03360 18.01031 11.25570 -8.34774 16.18463 6.55995 -2.49952 72.87769 8.16550 70.56208 2.89327 22.26351 87.72164 16.41777 9.94345 15.14150 -10.78176 -13.83962 17.85798 -331.18332 25.88340 361.36902 -15.14546 0.03085 0.03532 4.03664 -11.56800 -45.10809 -18.31837 7.24441 9.33400 32.93138 -4.51515 -54.00476 -19.61721 0.03233 0.02294 -7.69326 -25.91617 15.83625 
